<svg width="34" height="34" viewBox="0 0 34 34" fill="none" xmlns="http://www.w3.org/2000/svg">
<path fill-rule="evenodd" clip-rule="evenodd" d="M0.833313 17.0178C0.833313 7.73413 8.1062 0.208252 17.0778 0.208252C26.0493 0.208252 33.3222 7.73413 33.3222 17.0178C33.3222 26.3014 26.0493 33.8273 17.0778 33.8273C8.1062 33.8273 0.833313 26.3014 0.833313 17.0178Z" fill="#C4C4C4"/>
<path fill-rule="evenodd" clip-rule="evenodd" d="M17.0778 0.208252C8.1062 0.208252 0.833313 7.73413 0.833313 17.0178C0.833313 26.3014 8.1062 33.8273 17.0778 33.8273C26.0493 33.8273 33.3222 26.3014 33.3222 17.0178C33.3222 7.73413 26.0493 0.208252 17.0778 0.208252ZM18.7709 17.7562V26.9015H15.1142V17.7566H13.2873V14.6051H15.1142V12.7129C15.1142 10.1419 16.1458 8.6131 19.0766 8.6131H21.5166V11.765H19.9914C18.8505 11.765 18.775 12.2054 18.775 13.0274L18.7709 14.6047H21.5338L21.2105 17.7562H18.7709Z" fill="white"/>
</svg>
