<svg width="34" height="34" viewBox="0 0 34 34" fill="none" xmlns="http://www.w3.org/2000/svg">
<path fill-rule="evenodd" clip-rule="evenodd" d="M0.56665 17.0178C0.56665 7.73413 7.83954 0.208252 16.8111 0.208252C25.7827 0.208252 33.0555 7.73413 33.0555 17.0178C33.0555 26.3014 25.7827 33.8273 16.8111 33.8273C7.83954 33.8273 0.56665 26.3014 0.56665 17.0178Z" fill="#C4C4C4"/>
<path fill-rule="evenodd" clip-rule="evenodd" d="M16.8111 0.208252C7.83954 0.208252 0.56665 7.73413 0.56665 17.0178C0.56665 26.3014 7.83954 33.8273 16.8111 33.8273C25.7827 33.8273 33.0555 26.3014 33.0555 17.0178C33.0555 7.73413 25.7827 0.208252 16.8111 0.208252ZM13.578 8.10708C14.5022 8.06356 14.7975 8.05291 17.1504 8.05291H17.1477C19.5014 8.05291 19.7956 8.06356 20.7197 8.10708C21.642 8.15078 22.272 8.30188 22.8243 8.52359C23.3946 8.75239 23.8766 9.05869 24.3585 9.55738C24.8404 10.0557 25.1364 10.5559 25.3584 11.1455C25.5714 11.7156 25.7176 12.367 25.7609 13.3214C25.8025 14.2777 25.8133 14.5833 25.8133 17.0181C25.8133 19.4529 25.8025 19.7577 25.7609 20.714C25.7176 21.668 25.5714 22.3197 25.3584 22.8899C25.1364 23.4794 24.8404 23.9795 24.3585 24.4779C23.8771 24.9765 23.3945 25.2836 22.8248 25.5126C22.2736 25.7343 21.6433 25.8854 20.721 25.9291C19.7968 25.9726 19.5024 25.9833 17.1493 25.9833C14.7966 25.9833 14.5014 25.9726 13.5773 25.9291C12.6552 25.8854 12.0254 25.7343 11.4742 25.5126C10.9047 25.2836 10.4213 24.9765 9.93996 24.4779C9.45821 23.9795 9.1622 23.4794 8.94073 22.8897C8.72666 22.3197 8.58064 21.6682 8.53823 20.7138C8.49635 19.7575 8.48588 19.4529 8.48588 17.0181C8.48588 14.5833 8.49671 14.2775 8.53805 13.3213C8.57956 12.3672 8.72576 11.7156 8.94055 11.1453C9.16256 10.5559 9.45857 10.0557 9.9405 9.55738C10.4221 9.05888 10.9054 8.75257 11.4753 8.52359C12.0261 8.30188 12.6557 8.15078 13.578 8.10708Z" fill="white"/>
<path fill-rule="evenodd" clip-rule="evenodd" d="M16.3733 9.66801C16.5242 9.66777 16.6865 9.66784 16.8617 9.66793L17.1505 9.66801C19.4637 9.66801 19.7379 9.6766 20.6514 9.71956C21.4961 9.75953 21.9546 9.90559 22.26 10.0283C22.6643 10.1908 22.9525 10.385 23.2556 10.6988C23.5588 11.0126 23.7465 11.3114 23.9039 11.7298C24.0225 12.0455 24.1638 12.5199 24.2023 13.394C24.2438 14.3391 24.2528 14.623 24.2528 17.0155C24.2528 19.4081 24.2438 19.692 24.2023 20.6371C24.1636 21.5112 24.0225 21.9856 23.9039 22.3012C23.7469 22.7196 23.5588 23.0175 23.2556 23.3311C22.9523 23.6449 22.6644 23.8391 22.26 24.0016C21.9549 24.1249 21.4961 24.2706 20.6514 24.3106C19.7381 24.3535 19.4637 24.3629 17.1505 24.3629C14.8371 24.3629 14.5629 24.3535 13.6496 24.3106C12.8049 24.2702 12.3464 24.1242 12.0408 24.0015C11.6365 23.839 11.3477 23.6447 11.0445 23.3309C10.7413 23.0172 10.5535 22.7191 10.3961 22.3005C10.2776 21.9849 10.1362 21.5104 10.0978 20.6363C10.0563 19.6913 10.048 19.4074 10.048 17.0133C10.048 14.6192 10.0563 14.3368 10.0978 13.3917C10.1364 12.5176 10.2776 12.0432 10.3961 11.7272C10.5532 11.3088 10.7413 11.01 11.0445 10.6962C11.3477 10.3824 11.6365 10.1882 12.0408 10.0253C12.3462 9.90204 12.8049 9.75636 13.6496 9.7162C14.4488 9.67885 14.7586 9.66764 16.3733 9.66577V9.66801ZM21.775 11.1561C21.201 11.1561 20.7353 11.6374 20.7353 12.2315C20.7353 12.8255 21.201 13.3074 21.775 13.3074C22.3489 13.3074 22.8146 12.8255 22.8146 12.2315C22.8146 11.6376 22.3489 11.1557 21.775 11.1557V11.1561ZM12.7013 17.0165C12.7013 14.474 14.6933 12.4126 17.1503 12.4125C19.6074 12.4125 21.599 14.474 21.599 17.0165C21.599 19.5591 19.6076 21.6196 17.1505 21.6196C14.6934 21.6196 12.7013 19.5591 12.7013 17.0165Z" fill="white"/>
<path fill-rule="evenodd" clip-rule="evenodd" d="M17.1502 14.0293C18.7451 14.0293 20.0381 15.3672 20.0381 17.0177C20.0381 18.668 18.7451 20.0061 17.1502 20.0061C15.5552 20.0061 14.2623 18.668 14.2623 17.0177C14.2623 15.3672 15.5552 14.0293 17.1502 14.0293V14.0293Z" fill="white"/>
</svg>
