<svg width="33" height="34" viewBox="0 0 33 34" fill="none" xmlns="http://www.w3.org/2000/svg">
<path fill-rule="evenodd" clip-rule="evenodd" d="M0.299988 17.0178C0.299988 7.73413 7.57287 0.208252 16.5444 0.208252C25.516 0.208252 32.7889 7.73413 32.7889 17.0178C32.7889 26.3014 25.516 33.8273 16.5444 33.8273C7.57287 33.8273 0.299988 26.3014 0.299988 17.0178Z" fill="#C4C4C4"/>
<path fill-rule="evenodd" clip-rule="evenodd" d="M16.5444 0.208252C7.57287 0.208252 0.299988 7.73413 0.299988 17.0178C0.299988 26.3014 7.57287 33.8273 16.5444 33.8273C25.516 33.8273 32.7889 26.3014 32.7889 17.0178C32.7889 7.73413 25.516 0.208252 16.5444 0.208252ZM16.7689 14.4526L16.7349 13.8709C16.6326 12.3634 17.5302 10.9864 18.9506 10.4523C19.4733 10.2623 20.3595 10.2386 20.939 10.4048C21.1663 10.476 21.5981 10.7134 21.9049 10.9271L22.4616 11.3188L23.0752 11.117C23.4161 11.0102 23.8706 10.8321 24.0751 10.7134C24.2683 10.6066 24.4387 10.5472 24.4387 10.5828C24.4387 10.7846 24.0183 11.4731 23.6661 11.853C23.1888 12.3871 23.3252 12.4346 24.291 12.0785C24.8705 11.8767 24.8819 11.8767 24.7683 12.1022C24.7001 12.2209 24.3478 12.6364 23.9729 13.0162C23.3366 13.6691 23.3025 13.7403 23.3025 14.2864C23.3025 15.1292 22.9161 16.886 22.5298 17.8475C21.814 19.6518 20.28 21.5154 18.746 22.4532C16.5871 23.7708 13.7124 24.1032 11.2921 23.3316C10.4854 23.0704 9.09916 22.4057 9.09916 22.287C9.09916 22.2514 9.51957 22.2039 10.0309 22.192C11.099 22.1683 12.1671 21.8597 13.0761 21.3136L13.6897 20.9338L12.9852 20.6845C11.9853 20.3284 11.0876 19.5093 10.8604 18.7378C10.7922 18.4885 10.8149 18.4766 11.4512 18.4766L12.1103 18.4647L11.5535 18.1917C10.8945 17.8475 10.2922 17.2658 9.99681 16.6723C9.78092 16.245 9.50821 15.1648 9.58775 15.0817C9.61048 15.0461 9.84909 15.1173 10.1218 15.2123C10.9058 15.509 11.0081 15.4378 10.5536 14.9392C9.70138 14.0371 9.44004 12.6957 9.84909 11.4256L10.0423 10.8558L10.7922 11.6274C12.3261 13.1824 14.1328 14.1083 16.2008 14.3813L16.7689 14.4526Z" fill="white"/>
</svg>
