<svg width="33" height="34" viewBox="0 0 33 34" fill="none" xmlns="http://www.w3.org/2000/svg">
<path fill-rule="evenodd" clip-rule="evenodd" d="M0.0333252 17.0178C0.0333252 7.73413 7.30621 0.208252 16.2778 0.208252C25.2493 0.208252 32.5222 7.73413 32.5222 17.0178C32.5222 26.3014 25.2493 33.8273 16.2778 33.8273C7.30621 33.8273 0.0333252 26.3014 0.0333252 17.0178Z" fill="#C4C4C4"/>
<path fill-rule="evenodd" clip-rule="evenodd" d="M16.2778 0.208252C7.30621 0.208252 0.0333252 7.73413 0.0333252 17.0178C0.0333252 26.3014 7.30621 33.8273 16.2778 33.8273C25.2493 33.8273 32.5222 26.3014 32.5222 17.0178C32.5222 7.73413 25.2493 0.208252 16.2778 0.208252ZM23.0475 11.2396C23.7931 11.4513 24.3802 12.0751 24.5795 12.8672C24.9416 14.3029 24.9416 17.2985 24.9416 17.2985C24.9416 17.2985 24.9416 20.294 24.5795 21.7298C24.3802 22.5219 23.7931 23.1457 23.0475 23.3575C21.6964 23.7421 16.2779 23.7421 16.2779 23.7421C16.2779 23.7421 10.8595 23.7421 9.50821 23.3575C8.76264 23.1457 8.17548 22.5219 7.97621 21.7298C7.61421 20.294 7.61421 17.2985 7.61421 17.2985C7.61421 17.2985 7.61421 14.3029 7.97621 12.8672C8.17548 12.0751 8.76264 11.4513 9.50821 11.2396C10.8595 10.8548 16.2779 10.8548 16.2779 10.8548C16.2779 10.8548 21.6964 10.8548 23.0475 11.2396Z" fill="white"/>
<path fill-rule="evenodd" clip-rule="evenodd" d="M14.6532 20.3793V14.7761L18.9851 17.5778L14.6532 20.3793Z" fill="white"/>
</svg>
